<?xml version="1.0" encoding="utf-8"?>
<!-- Generated by IcoMoon.io -->
<!DOCTYPE svg PUBLIC "-//W3C//DTD SVG 1.1//EN" "http://www.w3.org/Graphics/SVG/1.1/DTD/svg11.dtd">
<svg version="1.1" xmlns="http://www.w3.org/2000/svg" xmlns:xlink="http://www.w3.org/1999/xlink" width="745" height="1024" viewBox="0 0 745 1024"><g id="icomoon-ignore">
</g>
<path d="M192.004 96.171q0 35.579-25.011 59.182t-65.875 23.603h-1.057q-39.103 0-63.761-23.778t-24.66-59.006q0-35.579 25.188-59.006t65.699-23.426q39.807 0 64.29 23.426t25.188 59.006zM26.788 253.989h150.068v466.057h-150.068v-466.057zM417.459 449.5v270.546h-150.421v-360.728q-2.465-89.478-2.465-105.329h147.954l4.932 64.465q23.954-36.285 58.125-57.772t77.147-21.489q81.022 0 130.693 55.483t49.671 154.824v270.546h-150.421v-255.397q0-53.546-22.722-79.438t-59.006-25.892q-35.932 0-59.71 23.426t-23.778 66.756z"></path>
</svg>
