<?xml version="1.0" encoding="utf-8"?>
<!-- Generated by IcoMoon.io -->
<!DOCTYPE svg PUBLIC "-//W3C//DTD SVG 1.1//EN" "http://www.w3.org/Graphics/SVG/1.1/DTD/svg11.dtd">
<svg version="1.1" xmlns="http://www.w3.org/2000/svg" xmlns:xlink="http://www.w3.org/1999/xlink" width="23" height="32" viewBox="0 0 23 32">
<path fill="#444444" d="M22.17 14.841q1.102 1.625 1.102 3.58 0 1.705-0.847 3.159t-2.301 2.301-3.159 0.847q-1.955 0-3.58-1.102-0.977 0.136-1.75 0.136-2.17 0-4.148-0.847t-3.403-2.273-2.273-3.403-0.847-4.148q0-0.773 0.136-1.75-1.102-1.625-1.102-3.58 0-1.705 0.847-3.159t2.301-2.301 3.159-0.847q1.955 0 3.58 1.102 0.977-0.136 1.75-0.136 2.17 0 4.148 0.847t3.403 2.273 2.273 3.403 0.847 4.148q0 0.773-0.136 1.75zM11.852 20.364q1.568 0 2.909-0.523t2.205-1.602 0.864-2.511q0-3.034-4.841-4.114l-1.625-0.352q-0.443-0.102-0.676-0.165t-0.551-0.182-0.466-0.244-0.261-0.324-0.114-0.46q0-0.614 0.591-0.915t1.648-0.301q0.682 0 1.205 0.182t0.841 0.449 0.597 0.528 0.619 0.443 0.75 0.182q0.716 0 1.165-0.494t0.449-1.21q0-0.852-0.875-1.54t-2.222-1.040-2.835-0.352q-1.057 0-2.034 0.239t-1.841 0.727-1.386 1.352-0.523 1.989q0 0.943 0.295 1.653t0.875 1.176 1.239 0.75 1.58 0.523l2.284 0.534q1.284 0.33 1.614 0.5 0.625 0.33 0.625 1.011 0 0.591-0.625 0.994t-1.636 0.403q-0.67 0-1.222-0.176t-0.898-0.443-0.676-0.58-0.58-0.58-0.591-0.443-0.727-0.176q-0.761 0-1.159 0.466t-0.398 1.148q0 0.943 0.864 1.744t2.341 1.267 3.205 0.466z"></path>
</svg>
