<svg xmlns="http://www.w3.org/2000/svg" display="none"><symbol viewBox="0 0 23 32" id="icon-email"><title>email</title> <path d="M23.273 5.818l-11.636 8.727-11.636-8.727q0-0.602 0.426-1.028t1.028-0.426h20.364q0.602 0 1.028 0.426t0.426 1.028zM0 8.432l11.636 8.727 11.636-8.727v11.932q0 0.602-0.426 1.028t-1.028 0.426h-20.364q-0.602 0-1.028-0.426t-0.426-1.028v-11.932z"/> </symbol><symbol viewBox="0 0 23 32" id="icon-github"><title>github</title> <path d="M21.58 8.67q1.693 2.148 1.693 4.875 0 2.023-0.517 3.58t-1.477 2.619-2.409 1.744-3.222 0.989-4.011 0.307q-2.807 0-4.903-0.489t-3.631-1.563-2.318-2.864-0.784-4.29q0-2.784 1.693-4.875-0.602-3.239 0.25-5.307 2.75 0.216 5.057 2.045 2.216-0.591 4.636-0.591 2.432 0 4.602 0.591 2.386-1.83 5.091-2.045 0.852 2.068 0.25 5.273zM11.636 21.33q8.568 0 8.568-4.841 0-0.966-0.301-1.727t-0.756-1.199-1.045-0.722-1.102-0.381-1-0.097q-0.545 0-1.636 0.119t-2.727 0.119-2.727-0.119-1.636-0.119q-0.489 0-1 0.097t-1.102 0.381-1.045 0.722-0.756 1.199-0.301 1.727q0 4.841 8.568 4.841zM8 14.545q1.216 0 1.216 2.182t-1.216 2.182-1.216-2.182 1.216-2.182zM15.273 14.545q1.216 0 1.216 2.182t-1.216 2.182-1.216-2.182 1.216-2.182z"/> </symbol><symbol viewBox="0 0 745 1024" id="icon-linkedin"><title>linkedin</title> <path d="M192.004 96.171q0 35.579-25.011 59.182t-65.875 23.603h-1.057q-39.103 0-63.761-23.778t-24.66-59.006q0-35.579 25.188-59.006t65.699-23.426q39.807 0 64.29 23.426t25.188 59.006zM26.788 253.989h150.068v466.057h-150.068v-466.057zM417.459 449.5v270.546h-150.421v-360.728q-2.465-89.478-2.465-105.329h147.954l4.932 64.465q23.954-36.285 58.125-57.772t77.147-21.489q81.022 0 130.693 55.483t49.671 154.824v270.546h-150.421v-255.397q0-53.546-22.722-79.438t-59.006-25.892q-35.932 0-59.71 23.426t-23.778 66.756z"/> </symbol><symbol viewBox="0 0 23 32" id="icon-skype"><title>skype</title> <path d="M22.17 14.841q1.102 1.625 1.102 3.58 0 1.705-0.847 3.159t-2.301 2.301-3.159 0.847q-1.955 0-3.58-1.102-0.977 0.136-1.75 0.136-2.17 0-4.148-0.847t-3.403-2.273-2.273-3.403-0.847-4.148q0-0.773 0.136-1.75-1.102-1.625-1.102-3.58 0-1.705 0.847-3.159t2.301-2.301 3.159-0.847q1.955 0 3.58 1.102 0.977-0.136 1.75-0.136 2.17 0 4.148 0.847t3.403 2.273 2.273 3.403 0.847 4.148q0 0.773-0.136 1.75zM11.852 20.364q1.568 0 2.909-0.523t2.205-1.602 0.864-2.511q0-3.034-4.841-4.114l-1.625-0.352q-0.443-0.102-0.676-0.165t-0.551-0.182-0.466-0.244-0.261-0.324-0.114-0.46q0-0.614 0.591-0.915t1.648-0.301q0.682 0 1.205 0.182t0.841 0.449 0.597 0.528 0.619 0.443 0.75 0.182q0.716 0 1.165-0.494t0.449-1.21q0-0.852-0.875-1.54t-2.222-1.040-2.835-0.352q-1.057 0-2.034 0.239t-1.841 0.727-1.386 1.352-0.523 1.989q0 0.943 0.295 1.653t0.875 1.176 1.239 0.75 1.58 0.523l2.284 0.534q1.284 0.33 1.614 0.5 0.625 0.33 0.625 1.011 0 0.591-0.625 0.994t-1.636 0.403q-0.67 0-1.222-0.176t-0.898-0.443-0.676-0.58-0.58-0.58-0.591-0.443-0.727-0.176q-0.761 0-1.159 0.466t-0.398 1.148q0 0.943 0.864 1.744t2.341 1.267 3.205 0.466z"/> </symbol><symbol viewBox="0 0 23 32" id="icon-twitter"><title>twitter</title> <path d="M23.273 5.625q-0.955 1.443-2.375 2.477v0.625q0 1.591-0.403 3.199t-1.159 3.125-1.938 2.835-2.648 2.301-3.381 1.551-4.040 0.568q-4.307 0-7.33-1.943 0.523 0.080 1.136 0.080 1.591 0 3.114-0.614t2.807-1.648q-1.534-0.011-2.767-0.949t-1.676-2.369q0.477 0.091 0.886 0.091 0.659 0 1.273-0.17-1.648-0.33-2.739-1.642t-1.091-3.040v-0.057q1.023 0.557 2.159 0.591-0.989-0.659-1.563-1.705t-0.574-2.25q0-1.17 0.648-2.318 1.795 2.182 4.341 3.46t5.489 1.438q-0.102-0.443-0.102-1.102 0-1.977 1.392-3.369t3.369-1.392q2.034 0 3.511 1.5 1.625-0.33 3.011-1.159-0.545 1.727-2.102 2.648 1.42-0.159 2.75-0.761z"/> </symbol></svg>